<?xml version="1.0" standalone="no"?><!DOCTYPE svg PUBLIC "-//W3C//DTD SVG 1.1//EN" "http://www.w3.org/Graphics/SVG/1.1/DTD/svg11.dtd">
<svg
  t="1660233457196"
  class="icon"
  viewBox="0 0 1024 1024"
  version="1.1"
  xmlns="http://www.w3.org/2000/svg"
  p-id="14263"
  xmlns:xlink="http://www.w3.org/1999/xlink"
  width="200"
  height="200"
>
  <defs>
    <style type="text/css">
      @font-face {
        font-family: feedback-iconfont;
        src: url("//at.alicdn.com/t/font_1031158_u69w8yhxdu.woff2?t=1630033759944") format("woff2"),
          url("//at.alicdn.com/t/font_1031158_u69w8yhxdu.woff?t=1630033759944") format("woff"),
          url("//at.alicdn.com/t/font_1031158_u69w8yhxdu.ttf?t=1630033759944") format("truetype");
      }
    </style>
  </defs>
  <path
    d="M465.491976 2.093647C202.879408 25.730912 0 246.572934 0 512.001493c0 282.751175 229.247331 511.998507 511.998507 511.998507 265.428559 0 486.227915-202.836742 509.907846-465.491976l0.170666-4.906652a42.666542 42.666542 0 0 0-42.666542-41.557212L511.998507 512.001493 511.998507 44.589523a42.666542 42.666542 0 0 0-46.506531-42.495876zM426.665422 93.826713V554.668036l0.298666 4.991985A42.666542 42.666542 0 0 0 469.331964 597.334578h460.798656l-2.346659 10.837301A426.921421 426.921421 0 0 1 511.998507 938.666916C276.351194 938.666916 85.333084 747.648806 85.333084 512.001493c0-201.428746 140.202258-372.052248 330.495037-415.785454L426.665422 93.826713z"
    p-id="14264"
    fill="currentColor"
  ></path>
  <path
    d="M597.331591 42.669529v319.999067a63.999813 63.999813 0 0 0 63.999813 63.999813H981.330471a42.666542 42.666542 0 0 0 40.703881-55.466505A565.63035 565.63035 0 0 0 652.798096 1.965648 42.666542 42.666542 0 0 0 597.331591 42.669529z m85.333085 62.037152l9.98397 4.69332a481.23593 481.23593 0 0 1 221.951353 221.994019l4.650653 9.941304H682.664676V104.706681z"
    p-id="14265"
    fill="currentColor"
  ></path>
</svg>