<svg
  width="128px"
  height="128px"
  fill="none"
  xmlns="http://www.w3.org/2000/svg"
  viewBox="0 0 40 40"
>
  <path
    fill-rule="evenodd"
    clip-rule="evenodd"
    d="M15.363 8.445V6.609h9.092v1.44a1.508 1.508 0 00-.022.396h-9.07zm11.852 1.384c-.51 1.07-1.743 1.616-2.771 1.616h-9.07c-1.027 0-2.26-.546-2.771-1.616H9.828a1.72 1.72 0 00-1.72 1.72V31.67a1.72 1.72 0 001.72 1.72h9.654a1.5 1.5 0 110 3H9.828a4.72 4.72 0 01-4.72-4.72V11.55a4.72 4.72 0 014.72-4.72h2.535v-.511c0-1.792 1.678-2.71 3.012-2.71h9.069c1.333 0 3.011.918 3.011 2.71v.51h1.694a4.72 4.72 0 014.72 4.72v6.435a1.5 1.5 0 01-3 0V11.55a1.72 1.72 0 00-1.72-1.72h-1.934zm-6.313 18.636a4.94 4.94 0 116.987-6.986 4.94 4.94 0 01-6.987 6.986zm-2.121-9.107a7.94 7.94 0 0010.067 12.19l3.594 3.594a1.5 1.5 0 102.121-2.121l-3.593-3.594a7.94 7.94 0 00-12.19-10.07z"
    fill="#0081fa"
  ></path>
</svg>