<svg
  width="128px"
  height="128px"
  fill="none"
  xmlns="http://www.w3.org/2000/svg"
  viewBox="0 0 40 40"
>
<path
  fill-rule="evenodd"
  clip-rule="evenodd"
  d="M23.396 31.5a15.078 15.078 0 005.258-11.459c0-4.58-2.038-8.685-5.256-11.457h.144C29.87 8.584 35 13.713 35 20.041S29.87 31.5 23.542 31.5h-.146zm-2.102-.354a13.526 13.526 0 005.79-11.105 13.53 13.53 0 00-5.789-11.104c-1.831.79-1.39 2.842-.802 5.577.352 1.639.757 3.523.757 5.528 0 2.004-.405 3.889-.757 5.528-.588 2.734-1.029 4.786.801 5.576z"
  fill="#00d09c"
></path>
<path
  fill-rule="evenodd"
  clip-rule="evenodd"
  d="M32.86 29.148a12.987 12.987 0 003.71-9.106c0-3.545-1.414-6.759-3.71-9.108a9.378 9.378 0 010 18.214zm-2.71.255A11.444 11.444 0 0035 20.042c0-3.868-1.916-7.287-4.85-9.362-2.625.156-2.01 1.687-1.095 3.965.614 1.526 1.362 3.387 1.362 5.396 0 2.01-.748 3.87-1.362 5.396-.915 2.28-1.53 3.81 1.096 3.966zm-16.608 4.18c7.478 0 13.541-6.063 13.541-13.541 0-7.48-6.063-13.542-13.541-13.542C6.062 6.5 0 12.563 0 20.042c0 7.478 6.063 13.541 13.542 13.541zm6.411-16.14a1.333 1.333 0 10-1.885-1.886l-6.398 6.398-2.394-2.394a1.333 1.333 0 00-1.885 1.886l3.336 3.336c.52.521 1.365.521 1.886 0l7.34-7.34z"
  fill="#00d09c"
></path>
</svg>